<svg width="126" height="38" viewBox="0 0 126 38" fill="none" xmlns="http://www.w3.org/2000/svg">
<rect width="126" height="38" rx="19" fill="#231815"/>
<path d="M46.948 20.68L45.356 16.472C45.2973 16.312 45.2333 16.128 45.164 15.92C45.0947 15.7067 45.028 15.4773 44.964 15.232C44.9053 15.4827 44.8413 15.7147 44.772 15.928C44.708 16.136 44.644 16.32 44.58 16.48L42.996 20.68H46.948ZM50.484 25H49.036C48.876 25 48.7427 24.96 48.636 24.88C48.5347 24.7947 48.46 24.6907 48.412 24.568L47.452 22.024H42.484L41.524 24.568C41.4813 24.6747 41.4067 24.7733 41.3 24.864C41.1933 24.9547 41.0627 25 40.908 25H39.452L44.02 13.48H45.916L50.484 25ZM56.3663 17.304C56.4516 17.1653 56.5663 17.0533 56.7103 16.968C56.8596 16.8827 57.0143 16.84 57.1743 16.84H58.5183L56.5103 19.904C56.3823 20.112 56.2489 20.28 56.1103 20.408C55.9716 20.536 55.8009 20.6347 55.5983 20.704C55.8596 20.7787 56.0756 20.8933 56.2463 21.048C56.4223 21.1973 56.5796 21.392 56.7183 21.632L58.7423 25H57.5583C57.2543 25 57.0169 24.9493 56.8463 24.848C56.6809 24.7467 56.5396 24.5973 56.4223 24.4L55.0383 22.016C54.9263 21.8133 54.7796 21.664 54.5983 21.568C54.4169 21.472 54.2116 21.424 53.9823 21.424H53.1743V25.008H51.4543V16.84H53.1743V20.272H53.8703C54.0943 20.272 54.2809 20.2293 54.4303 20.144C54.5796 20.0587 54.7076 19.928 54.8142 19.752L56.3663 17.304ZM68.4103 23.704V27.248C68.4103 27.408 68.3649 27.5333 68.2743 27.624C68.1836 27.72 68.0663 27.768 67.9223 27.768H66.8583V25H59.9543V16.84H61.6743V23.704H65.2023V16.84H66.9143V23.704H68.4103ZM76.9271 16.84V25H75.2071V19.888C75.2071 19.776 75.2125 19.6533 75.2231 19.52C75.2338 19.3867 75.2498 19.2507 75.2711 19.112C75.2178 19.2293 75.1645 19.3387 75.1111 19.44C75.0631 19.536 75.0098 19.624 74.9511 19.704L71.4071 24.576C71.3431 24.6773 71.2578 24.776 71.1511 24.872C71.0445 24.9627 70.9245 25.008 70.7911 25.008H69.7511V16.84H71.4711V21.952C71.4711 22.064 71.4631 22.1893 71.4471 22.328C71.4365 22.4667 71.4205 22.6053 71.3991 22.744C71.5058 22.4987 71.6151 22.296 71.7271 22.136L75.2711 17.272C75.3351 17.1653 75.4205 17.0667 75.5271 16.976C75.6338 16.8853 75.7538 16.84 75.8871 16.84H76.9271ZM83.2888 20.568V17.976H82.0807C81.8034 17.976 81.5714 18.016 81.3848 18.096C81.1981 18.176 81.0488 18.28 80.9368 18.408C80.8248 18.5307 80.7448 18.6693 80.6968 18.824C80.6488 18.9787 80.6248 19.1307 80.6248 19.28C80.6248 19.68 80.7661 19.9947 81.0488 20.224C81.3368 20.4533 81.7234 20.568 82.2088 20.568H83.2888ZM84.9288 16.84V25H83.2888V21.656H82.8168C82.6621 21.656 82.5341 21.6693 82.4328 21.696C82.3314 21.7227 82.2434 21.76 82.1688 21.808C82.0994 21.856 82.0354 21.9147 81.9768 21.984C81.9234 22.0533 81.8701 22.1307 81.8168 22.216L80.2888 24.4C80.1768 24.6027 80.0434 24.7547 79.8888 24.856C79.7394 24.952 79.5128 25 79.2088 25H78.0248L80.2248 22.032C80.4274 21.68 80.7101 21.44 81.0728 21.312C80.6781 21.2533 80.3421 21.152 80.0648 21.008C79.7874 20.864 79.5634 20.696 79.3928 20.504C79.2221 20.312 79.0968 20.104 79.0168 19.88C78.9421 19.6507 78.9048 19.424 78.9048 19.2C78.9048 18.9067 78.9608 18.6187 79.0728 18.336C79.1901 18.0533 79.3741 17.8027 79.6248 17.584C79.8754 17.36 80.1981 17.1813 80.5928 17.048C80.9928 16.9093 81.4728 16.84 82.0328 16.84H84.9288Z" fill="white"/>
</svg>
